# xmcd
#
# Track frame offsets: 
#        183
#        13818
#        28778
#        49123
#        66620
#        85683
#        96870
#        111658
#        132348
#        148353
#
# Disc length: 2325 seconds
#
# Revision: 5
# Processed by: cddbd v1.5PL3 Copyright (c) Steve Scherf et al.
# Submitted via: ExactAudioCopy v0.95a4
#
DISCID=9909130a
DTITLE=Hank Williams, Jr. - Wild Streak
DYEAR=1988
DGENRE=Country
TTITLE0=Wild Streak
TTITLE1=If The South Woulda Won
TTITLE2=What You Don't Know (Won't Hurt You)
TTITLE3=You're Gonna Be A Sorry Man
TTITLE4=Love M.D.
TTITLE5=Early In The Morning And Late At Night
TTITLE6=I'm Just A Man
TTITLE7=Social Call
TTITLE8=You Brought Me Down To Earth
TTITLE9=Tuesday's Gone
EXTD=
EXTT0=
EXTT1=
EXTT2=
EXTT3=
EXTT4=
EXTT5=
EXTT6=
EXTT7=
EXTT8=
EXTT9=
PLAYORDER=
